<svg xmlns="http://www.w3.org/2000/svg" width="72" height="72" viewBox="0 0 72 72"><linearGradient id="a" gradientUnits="userSpaceOnUse" x1="3.218" y1="34.829" x2="32.731" y2="34.829"><stop offset=".206" stop-color="#074553"/><stop offset=".364" stop-color="#075972"/><stop offset=".533" stop-color="#007a94"/><stop offset=".927" stop-color="#62a6bd"/></linearGradient><path fill="url(#a)" d="M3.218 31.128c0 3.593 2.167 7.642 6.47 11.944 4.301 4.303 8.345 6.473 11.939 6.471h.001c4.002.002 7.587-2.357 11.103-6.176-5.131 2.666-10.674 2.129-18.067-5.281-7.332-7.35-7.875-12.87-5.234-17.972-3.973 3.547-6.213 7.022-6.212 11.014z"/><linearGradient id="b" gradientUnits="userSpaceOnUse" x1="40.233" y1="7.807" x2="68.915" y2="24.366"><stop offset=".236" stop-color="#203a17"/><stop offset=".551" stop-color="#3f6424"/><stop offset=".806" stop-color="#6c9c25"/><stop offset="1" stop-color="#9cbe5c"/></linearGradient><path fill="url(#b)" d="M68.781 21.721c0-3.593-2.167-7.643-6.471-11.946-4.303-4.301-8.346-6.472-11.938-6.471h-.001c-4.003-.001-7.589 2.358-11.104 6.176 5.131-2.665 10.674-2.129 18.065 5.28 7.334 7.354 7.876 12.874 5.236 17.978 3.976-3.55 6.213-7.024 6.213-11.017z"/><linearGradient id="c" gradientUnits="userSpaceOnUse" x1="63.53" y1="43.144" x2="27.672" y2="9.706"><stop offset="0" stop-color="#395b22"/><stop offset=".2" stop-color="#3f6424"/><stop offset=".497" stop-color="#6c9c25"/><stop offset=".543" stop-color="#79a534"/><stop offset=".633" stop-color="#8cb34a"/><stop offset=".718" stop-color="#98bb57"/><stop offset=".794" stop-color="#9cbe5c"/></linearGradient><path fill="url(#c)" d="M62.9 9.09C47.656-6.153 36.847.544 28.287 9.106c-8.562 8.564-15.257 19.371-.02 34.614l.037.041c15.242 15.24 26.054 8.543 34.619-.02C69.115 37.547 72 32.089 72 26.563c0-5.633-3.004-11.375-9.1-17.473zm-2.427 25.795c-8.042 8.041-14.125 12.506-24.961 1.67-10.875-10.875-6.41-16.958 1.633-25.004 4.407-4.409 8.446-8.062 13.229-8.061h.001c3.595-.001 7.432 2.092 11.731 6.394 4.304 4.304 6.433 8.178 6.433 11.772-.001 4.779-3.656 8.818-8.066 13.229z"/><linearGradient id="d" gradientUnits="userSpaceOnUse" x1="41.993" y1="45.011" x2="10.567" y2="7.558"><stop offset=".054" stop-color="#074553"/><stop offset=".188" stop-color="#075972"/><stop offset=".582" stop-color="#007a94"/><stop offset="1" stop-color="#62a6bd"/></linearGradient><path fill="url(#d)" d="M30.232 45.586c-2.758 2.256-5.527 3.77-8.603 3.77-3.595.002-7.433-2.09-11.732-6.395-4.305-4.301-6.434-8.175-6.434-11.769 0-4.777 3.653-8.818 8.064-13.229 8.043-8.043 14.126-12.505 24.962-1.67 9.571 9.572 7.258 15.435 1.08 22.186 2.646 2.297 5.009 3.627 7.194 4.187 8.025-8.39 13.574-18.923-1.031-33.536l-.036-.04C28.452-6.151 17.642.545 9.08 9.104 2.883 15.302-.001 20.761 0 26.286-.001 31.92 3.002 37.66 9.101 43.76c11.053 11.053 19.771 10.566 26.994 6.201-1.875-1.096-3.83-2.541-5.863-4.375z"/><path fill="#231F20" d="M11.254 59.021v5.646H1.839v-5.646H0v12.86h1.841v-5.645h9.414v5.645h1.841v-12.86h-1.842zm4.294 0v1.782h1.663v-1.782h-1.663zm0 3.206v9.658h1.663v-9.658h-1.663zm8.39-.122c-1.354 0-2.327.225-2.925 1.034v-.913h-1.571v9.657h1.661v-6.178c0-1.635.506-2.176 3.508-2.176h.33c2.438 0 2.627.688 2.627 1.668v6.686h1.66v-7.002c0-1.039-.435-2.774-3.359-2.774l-1.931-.002zm15.468-3.085v3.771c-.422-.474-1.146-.685-2.283-.685H35.16c-3.122 0-4.229.914-4.229 3.494v2.996c0 3.002 2.104 3.404 4.155 3.404h1.796c1.226 0 2.104-.328 2.613-.938v.817h1.571V59.02h-1.66zm-6.811 9.564v-3.148c0-1.633.761-1.901 2.466-1.901h1.734c1.73 0 2.611.295 2.611 1.934v3.107c0 .692-.157 1.166-.49 1.481-.37.355-.975.527-1.854.527h-2.099c-2.012-.002-2.368-.648-2.368-2zm13.837-6.461c-2.396 0-3.376.621-3.376 2.145v.563h1.661v-.457c0-.455.135-.83 1.746-.83h1.889c2.023 0 2.654.191 2.654 1.369v1.557c-.517-.514-1.247-.635-2.566-.635h-2.063c-2.146 0-3.66.154-3.66 2.133v1.558c0 .838.173 1.414.549 1.813.422.444 1.105.661 2.093.661h3.08c1.496 0 2.156-.111 2.564-.523v.404h1.662V64.94c0-2.604-2.072-2.823-4.197-2.823h-2.033l-.003.006zm-2.059 7.434V68.27c0-.498.137-.68.343-.795.276-.149.751-.217 1.597-.217h1.978c2.158 0 2.716.205 2.716.996v1.391c0 .402-.172.607-.607.744-.547.168-1.494.195-2.438.195h-1.71c-1.791-.002-1.879-.373-1.879-1.027zm23.176-7.33s-2.51 7.201-2.84 7.935c-.275-.752-2.311-7.935-2.311-7.935H60.28s-2.034 7.183-2.313 7.935c-.331-.732-2.837-7.935-2.837-7.935h-1.776L57 71.885h2.031S61.035 64.82 61.338 64c.305.816 2.309 7.885 2.309 7.885h2.033l3.646-9.658h-1.777zm2.792-3.206v1.782H72v-1.782h-1.659zm0 3.206v9.658H72v-9.658h-1.659z"/></svg>